#!OML:ASF F:\VICON\USERDATA\INSTALL\rory3\rory3.ASF
:FULLY-SPECIFIED
:DEGREES
843
root -2.27806 17.1799 0.0298509 29.821 4.18718 364.576
lowerback -14.1458 -5.76803 -1.62952
upperback -19.1776 -7.84187 -0.93081
thorax -13.4323 -3.85245 -0.319468
lowerneck -6.16019 7.07135 -0.521044
upperneck 12.163 8.5078 9.40949
head 4.20131 4.72986 3.40729
rclavicle 2.5345e-014 1.11319e-014
rhumerus -35.1012 26.6763 -20.0939
rradius 23.2966
rwrist -17.1227
rhand 17.8186 7.64426
rfingers 7.12502
rthumb 42.4978 -16.7768
lclavicle 2.5345e-014 1.11319e-014
lhumerus 55.6042 -26.886 -14.4443
lradius 50.2032
lwrist 3.7462
lhand 26.1486 17.9088
lfingers 7.12502
lthumb 50.2136 39.0186
rfemur -49.3932 6.45077 18.2783
rtibia 24.5904
rfoot -45.7757 -42.7369
rtoes 42.2686
lfemur 6.86843 -3.49707 -20.6171
ltibia 9.54166e-015
lfoot -48.5423 28.0981
ltoes 52.6671
844
root -2.29907 17.1824 0.0580698 30.1554 3.7372 364.814
lowerback -14.1553 -5.70253 -2.22288
upperback -19.2727 -7.74093 -1.10682
thorax -13.5024 -3.73776 -0.189306
lowerneck -7.24004 7.03 -0.432724
upperneck 12.5645 8.34745 9.78491
head 4.50187 4.70784 3.56451
rclavicle -5.96354e-016 -9.54166e-015
rhumerus -34.9303 25.7879 -19.1645
rradius 23.0311
rwrist -16.4893
rhand 17.1501 7.45337
rfingers 7.12502
rthumb 41.8715 -17.1796
lclavicle -5.96354e-016 -9.54166e-015
lhumerus 56.2602 -25.42 -14.5039
lradius 49.3263
lwrist 3.47511
lhand 24.6175 18.5705
lfingers 7.12502
lthumb 48.8097 40.3965
rfemur -49.6477 6.89893 17.7321
rtibia 24.4619
rfoot -45.7633 -42.864
rtoes 42.0218
lfemur 6.43987 -3.18393 -20.887
ltibia -1.27222e-014
lfoot -47.198 30.8712
ltoes 52.4186
845
root -2.3072 17.1847 0.0958335 30.3031 3.72793 364.806
lowerback -14.1136 -5.74608 -2.22386
upperback -19.4493 -7.8199 -1.16478
thorax -13.7736 -3.77959 -0.237453
lowerneck -6.9714 7.12047 -0.165378
upperneck 12.2428 8.45735 9.84989
head 4.36251 4.76516 3.5238
rclavicle 2.3059e-014 1.55052e-014
rhumerus -34.6752 25.507 -18.4005
rradius 22.97
rwrist -16.1082
rhand 16.6149 7.09439
rfingers 7.12502
rthumb 41.3695 -17.7034
lclavicle 2.3059e-014 1.55052e-014
lhumerus 56.3741 -24.0577 -13.0878
lradius 48.084
lwrist 2.00482
lhand 23.6398 18.2972
lfingers 7.12502
lthumb 47.9095 40.5521
rfemur -49.6388 7.09243 17.6326
rtibia 24.4242
rfoot -45.5256 -43.1348
rtoes 41.5491
lfemur 6.2519 -3.13106 -20.7516
ltibia 3.18055e-015
lfoot -46.7299 31.3996
ltoes 52.7207
846
root -2.31238 17.188 0.137338 30.3982 3.93803 364.759
lowerback -14.1102 -5.85987 -2.01202
upperback -19.5409 -8.00173 -1.24967
thorax -13.9483 -3.90769 -0.439744
lowerneck -6.26323 7.2824 0.244297
upperneck 11.3328 8.71059 9.85001
head 3.97356 4.8695 3.40585
rclavicle -1.03368e-014 -1.90833e-014
rhumerus -34.1657 24.8299 -17.7243
rradius 22.6557
rwrist -15.3651
rhand 16.22 7.0045
rfingers 7.12502
rthumb 40.9987 -17.9123
lclavicle -1.03368e-014 -1.90833e-014
lhumerus 56.4106 -22.5972 -11.6682
lradius 46.8085
lwrist 0.447899
lhand 22.8354 18.5229
lfingers 7.12502
lthumb 47.1667 41.1153
rfemur -49.5659 7.12217 17.6919
rtibia 24.505
rfoot -45.9629 -42.9842
rtoes 41.4838
lfemur 6.12389 -3.24781 -20.4987
ltibia -3.18055e-015
lfoot -46.9589 31.5409
ltoes 52.6106
847
root -2.31883 17.1875 0.17476 30.4684 4.03227 364.948
lowerback -13.9459 -5.89795 -2.18013
upperback -19.9133 -8.08032 -1.32448
thorax -14.5392 -3.92052 -0.390736
lowerneck -5.13986 7.30479 0.0450634
upperneck 10.5982 8.8255 10.0801
head 3.5362 4.88741 3.43188
rclavicle 3.8763e-014 3.81667e-014
rhumerus -33.9198 24.5119 -16.6205
rradius 22.3249
rwrist -14.3585
rhand 15.8745 7.0529
rfingers 7.12502
rthumb 40.6741 -17.9662
lclavicle 3.8763e-014 3.81667e-014
lhumerus 56.8249 -21.9405 -10.7229
lradius 45.7574
lwrist -0.411431
lhand 21.5851 18.7439
lfingers 7.12502
lthumb 46.0088 41.8348
rfemur -49.5241 7.10685 17.5013
rtibia 24.636
rfoot -46.5314 -42.8179
rtoes 41.4427
lfemur 6.0241 -3.38344 -20.5337
ltibia 1.59028e-014
lfoot -47.6154 31.6544
ltoes 52.2602
848
root -2.32474 17.1838 0.203011 30.5156 3.88313 365.184
lowerback -13.6846 -5.96406 -2.48629
upperback -20.0663 -8.19464 -1.44014
thorax -14.8822 -3.93887 -0.318637
lowerneck -5.48679 7.28006 -0.0886671
upperneck 10.5098 8.7635 10.4667
head 3.54589 4.8766 3.57917
rclavicle -7.35503e-015 5.1684e-015
rhumerus -33.5148 23.967 -15.8033
rradius 22.0443
rwrist -13.4849
rhand 15.5303 7.13244
rfingers 7.12502
rthumb 40.3506 -17.9869
lclavicle -7.35503e-015 5.1684e-015
lhumerus 57.0475 -20.6263 -9.32337
lradius 44.6741
lwrist -1.60735
lhand 20.9413 18.8701
lfingers 7.12502
lthumb 45.411 42.2059
rfemur -49.5756 7.26586 17.1295
rtibia 24.7759
rfoot -47.1466 -42.6947
rtoes 41.5927
lfemur 5.93573 -3.33215 -20.7244
ltibia -9.54166e-015
lfoot -48.3116 31.3094
ltoes 52.2291
849
root -2.32651 17.184 0.222424 30.6252 3.73668 365.264
lowerback -13.4034 -5.98927 -2.60613
upperback -20.1911 -8.26197 -1.5088
thorax -15.2173 -3.9552 -0.291562
lowerneck -5.88355 7.29264 -0.252746
upperneck 10.3064 8.76007 10.8848
head 3.52329 4.89331 3.74098
rclavicle 5.34731e-014 5.64548e-014
rhumerus -33.0328 23.2405 -14.943
rradius 21.8189
rwrist -12.319
rhand 15.453 7.1845
rfingers 7.12502
rthumb 40.2779 -17.9571
lclavicle 5.34731e-014 5.64548e-014
lhumerus 57.2022 -19.1341 -7.72287
lradius 43.7349
lwrist -3.01042
lhand 20.545 19.0587
lfingers 7.12502
lthumb 45.0425 42.5415
rfemur -49.7057 7.49004 16.8871
rtibia 24.8709
rfoot -47.8629 -42.5399
rtoes 41.9626
lfemur 5.73316 -3.20242 -20.7756
ltibia 2.22639e-014
lfoot -48.403 31.7616
ltoes 51.9256
